# xmcd CD database file
#
# Track frame offsets:
#	150
#	35553
#	66800
#	89825
#	126317
#	161723
#	195584
#	221725
#
# Disc length: 3390 seconds
#
# Revision: 0
# Processed by: cddbd v1.5.2PL0 Copyright (c) Steve Scherf et al.
# Submitted via: CDex 2.16
#
DISCID=7a0d3c08
DTITLE=KAREL RUZICKA QUARTET - GRACE AND GRATITUDE
DYEAR=2018
DGENRE=Jazz
TTITLE0=KAREL RUZICKA QUARTET - BROOKLYN BROTHERHOOD
TTITLE1=KAREL RUZICKA QUARTET - GRACE TO YOU AND PEACE
TTITLE2=KAREL RUZICKA QUARTET - SEVEN HILLS
TTITLE3=KAREL RUZICKA QUARTET - MILAGROS
TTITLE4=KAREL RUZICKA QUARTET - MODUS KARELIUS
TTITLE5=KAREL RUZICKA QUARTET - ON EARTH AS IT IS IN HEAVEN
TTITLE6=KAREL RUZICKA QUARTET - FLIGHT
TTITLE7=KAREL RUZICKA QUARTET - GRACE AND GRATITUDE
EXTD=YEAR: 2018
EXTT0=
EXTT1=
EXTT2=
EXTT3=
EXTT4=
EXTT5=
EXTT6=
EXTT7=
PLAYORDER=
